<svg width="40" height="40" viewBox="0 0 40 40" fill="none" xmlns="http://www.w3.org/2000/svg">
<g id="Component 1">
<g id="vuesax/bold/dollar-square">
<g id="Group">
<path id="Vector" d="M18.7502 13.4666V18.2332L17.0669 17.6499C16.2169 17.3499 15.7002 17.0666 15.7002 15.6166C15.7002 14.4332 16.5835 13.4666 17.6669 13.4666H18.7502Z" fill="#B6B6B6"/>
<path id="Vector_2" d="M24.3 24.3833C24.3 25.5666 23.4167 26.5333 22.3333 26.5333H21.25V21.7666L22.9333 22.3499C23.7833 22.6499 24.3 22.9333 24.3 24.3833Z" fill="#B6B6B6"/>
<path id="Vector_3" d="M26.9835 3.33325H13.0168C6.95016 3.33325 3.3335 6.94992 3.3335 13.0166V26.9833C3.3335 33.0499 6.95016 36.6666 13.0168 36.6666H26.9835C33.0502 36.6666 36.6668 33.0499 36.6668 26.9833V13.0166C36.6668 6.94992 33.0502 3.33325 26.9835 3.33325ZM23.7668 19.9999C25.0668 20.4499 26.8002 21.3999 26.8002 24.3833C26.8002 26.9499 24.8002 29.0333 22.3335 29.0333H21.2502V29.9999C21.2502 30.6833 20.6835 31.2499 20.0002 31.2499C19.3168 31.2499 18.7502 30.6833 18.7502 29.9999V29.0333H18.1502C15.4168 29.0333 13.2002 26.7166 13.2002 23.8833C13.2002 23.1999 13.7502 22.6333 14.4502 22.6333C15.1335 22.6333 15.7002 23.1999 15.7002 23.8833C15.7002 25.3499 16.8002 26.5333 18.1502 26.5333H18.7502V20.8833L16.2335 19.9999C14.9335 19.5499 13.2002 18.5999 13.2002 15.6166C13.2002 13.0499 15.2002 10.9666 17.6668 10.9666H18.7502V9.99992C18.7502 9.31659 19.3168 8.74992 20.0002 8.74992C20.6835 8.74992 21.2502 9.31659 21.2502 9.99992V10.9666H21.8502C24.5835 10.9666 26.8002 13.2833 26.8002 16.1166C26.8002 16.7999 26.2502 17.3666 25.5502 17.3666C24.8668 17.3666 24.3002 16.7999 24.3002 16.1166C24.3002 14.6499 23.2002 13.4666 21.8502 13.4666H21.2502V19.1166L23.7668 19.9999Z" fill="#B6B6B6"/>
</g>
</g>
</g>
</svg>
