<svg width="9" height="9" viewBox="0 0 9 9" fill="none" xmlns="http://www.w3.org/2000/svg">
<g id="Paypass">
<g id="Vector">
<path d="M1.20947 3.45938C1.32197 3.6 1.40635 3.76875 1.4626 3.9375C1.51885 4.10625 1.54697 4.30313 1.54697 4.5C1.54697 4.69688 1.51885 4.89375 1.4626 5.0625C1.40635 5.23125 1.32197 5.4 1.20947 5.54063C1.06885 5.7375 1.09697 6.01875 1.29385 6.15938C1.49072 6.3 1.77197 6.27188 1.9126 6.075C2.08135 5.85 2.19385 5.625 2.30635 5.34375C2.41885 5.0625 2.44697 4.78125 2.44697 4.5C2.44697 4.21875 2.39072 3.9375 2.30635 3.65625C2.22197 3.40313 2.08135 3.15 1.9126 2.925C1.77197 2.72813 1.49072 2.7 1.29385 2.84063C1.09697 2.98125 1.06885 3.2625 1.20947 3.45938Z" fill="#FAFAFA"/>
<path d="M2.75635 2.64375C3.09385 3.17812 3.29072 3.825 3.29072 4.5C3.29072 5.175 3.09385 5.82187 2.75635 6.35625C2.61572 6.55312 2.7001 6.83437 2.89697 6.975C3.12197 7.11562 3.3751 7.03125 3.51572 6.83437C3.9376 6.15937 4.19072 5.37187 4.19072 4.5C4.19072 3.65625 3.9376 2.84062 3.51572 2.16562C3.3751 1.96875 3.09385 1.88437 2.89697 2.025C2.7001 2.16562 2.61572 2.41875 2.75635 2.64375Z" fill="#FAFAFA"/>
<path d="M4.38759 1.8C4.86572 2.5875 5.11884 3.51562 5.11884 4.5C5.11884 5.48438 4.83759 6.4125 4.38759 7.2C4.27509 7.425 4.33134 7.67812 4.55634 7.81875C4.78134 7.93125 5.03447 7.875 5.17509 7.65C5.73759 6.72188 6.04697 5.65312 6.04697 4.5C6.04697 3.34687 5.73759 2.27813 5.17509 1.35C5.06259 1.125 4.78134 1.06875 4.55634 1.18125C4.33134 1.32187 4.27509 1.575 4.38759 1.8Z" fill="#FAFAFA"/>
<path d="M6.01883 0.95625C6.60946 1.99688 6.97508 3.20625 6.97508 4.5C6.97508 5.79375 6.63758 7.00313 6.01883 8.04375C5.90633 8.26875 5.96258 8.52187 6.18758 8.6625C6.41258 8.775 6.66571 8.71875 6.80633 8.49375C7.48133 7.3125 7.87508 5.9625 7.87508 4.5C7.87508 3.0375 7.48133 1.6875 6.80633 0.50625C6.69383 0.28125 6.41258 0.225 6.18758 0.3375C5.96258 0.45 5.90633 0.73125 6.01883 0.95625Z" fill="#FAFAFA"/>
</g>
</g>
</svg>
